<?xml version="1.0" standalone="no"?>
<!DOCTYPE svg PUBLIC "-//W3C//DTD SVG 20010904//EN"
 "http://www.w3.org/TR/2001/REC-SVG-20010904/DTD/svg10.dtd">
<svg version="1.0" xmlns="http://www.w3.org/2000/svg"
 width="512.000000pt" height="512.000000pt" viewBox="0 0 512.000000 512.000000"
 preserveAspectRatio="xMidYMid meet">
<metadata>
Created by potrace 1.14, written by Peter Selinger 2001-2017
</metadata>
<g transform="translate(0.000000,512.000000) scale(0.100000,-0.100000)"
fill="#000000" stroke="none">
<path d="M2525 5099 c-38 -20 -172 -113 -225 -155 -61 -48 -221 -219 -272
-290 -168 -235 -249 -488 -248 -779 0 -142 5 -197 31 -325 60 -307 219 -592
437 -784 20 -18 22 -18 49 1 52 36 136 66 228 82 3 1 24 1 48 1 l42 0 24 68
c101 280 337 581 596 760 68 47 70 49 82 107 40 197 35 415 -13 584 -82 284
-281 523 -581 696 -99 57 -143 64 -198 34z"/>
<path d="M737 3664 c-2 -2 -23 -6 -48 -8 -45 -5 -50 -6 -129 -25 -115 -26
-281 -91 -406 -157 -145 -76 -159 -97 -149 -213 3 -42 8 -85 10 -96 3 -11 7
-38 10 -59 10 -70 47 -209 82 -308 157 -443 514 -777 913 -854 36 -7 126 -12
200 -12 147 0 289 24 449 73 212 66 417 165 405 195 -13 31 -12 210 2 256 l13
45 -92 92 c-108 107 -138 143 -211 252 -96 142 -176 310 -221 460 -21 72 -36
90 -140 168 -168 126 -348 188 -562 192 -67 2 -124 1 -126 -1z"/>
<path d="M3875 3620 c-355 -64 -633 -256 -842 -583 -47 -72 -121 -225 -137
-282 -4 -15 8 -34 44 -73 26 -29 62 -82 79 -117 30 -62 65 -185 53 -185 -3 0
-1 -5 6 -12 7 -7 50 -13 106 -14 51 -1 111 -5 132 -9 22 -4 53 -8 70 -10 46
-5 181 -42 254 -69 128 -47 263 -119 358 -192 39 -30 48 -32 95 -28 256 24
454 119 628 301 154 162 268 360 352 615 67 200 63 219 -60 319 -217 174 -457
292 -683 335 -19 3 -46 8 -60 11 -72 14 -300 10 -395 -7z"/>
<path d="M2525 2540 c-174 -40 -233 -252 -105 -375 37 -35 120 -64 168 -58
182 23 263 224 146 362 -48 57 -138 88 -209 71z"/>
<path d="M2989 2035 c-38 -61 -169 -175 -201 -175 -6 0 -8 -8 -5 -17 17 -58
57 -213 62 -238 28 -152 28 -551 0 -655 -2 -8 -7 -31 -10 -50 -3 -19 -11 -53
-16 -75 -6 -22 -13 -49 -15 -59 -2 -11 -11 -41 -19 -67 -19 -56 -20 -53 77
-184 193 -262 438 -421 751 -486 199 -42 586 -26 677 28 32 18 56 67 65 128
25 192 26 526 0 680 -3 17 -8 46 -11 65 -18 116 -74 296 -126 406 -178 379
-479 623 -863 700 -11 2 -33 7 -50 10 -16 4 -91 8 -166 9 -131 2 -137 1 -150
-20z"/>
<path d="M2205 1913 c-41 -32 -264 -133 -384 -173 -116 -38 -246 -73 -316 -84
-16 -2 -50 -7 -73 -11 -99 -16 -356 -227 -462 -381 -95 -137 -161 -309 -185
-478 -8 -55 -8 -243 -1 -296 3 -19 7 -51 10 -70 6 -50 33 -162 57 -242 31
-100 56 -116 247 -153 170 -32 395 -24 582 22 166 40 354 139 485 253 94 83
235 247 235 275 0 4 8 19 19 33 54 77 130 334 146 492 11 113 6 336 -10 420
-3 14 -7 40 -10 58 -7 40 -62 213 -72 227 -5 6 -33 18 -63 29 -30 10 -81 36
-114 57 -32 21 -61 39 -65 39 -3 0 -15 -8 -26 -17z"/>
</g>
</svg>
